<?xml version="1.0" standalone="no"?><!DOCTYPE svg PUBLIC "-//W3C//DTD SVG 1.1//EN" "http://www.w3.org/Graphics/SVG/1.1/DTD/svg11.dtd"><svg t="1710076702678" class="icon" viewBox="0 0 1024 1024" version="1.1" xmlns="http://www.w3.org/2000/svg" p-id="1479" xmlns:xlink="http://www.w3.org/1999/xlink" width="200" height="200"><path d="M512 290.56a123.946667 123.946667 0 1 1 123.52-123.946667A123.946667 123.946667 0 0 1 512 290.56zM512 128a38.613333 38.613333 0 1 0 38.186667 38.613333A38.4 38.4 0 0 0 512 128zM208.853333 900.053333a123.946667 123.946667 0 1 1 123.52-123.946666 123.946667 123.946667 0 0 1-123.52 123.946666z m0-162.56a38.613333 38.613333 0 1 0 38.186667 38.613334 38.4 38.4 0 0 0-38.186667-38.613334zM815.146667 900.053333A123.946667 123.946667 0 1 1 938.666667 776.106667a123.946667 123.946667 0 0 1-123.52 123.946666z m0-162.56A38.613333 38.613333 0 1 0 853.333333 776.106667a38.4 38.4 0 0 0-38.186666-38.613334zM894.293333 631.893333h-3.84a42.666667 42.666667 0 0 1-38.613333-46.506666c0-10.88 1.493333-21.333333 1.493333-32.426667A346.026667 346.026667 0 0 0 685.226667 256a42.666667 42.666667 0 1 1 42.666666-73.386667A431.573333 431.573333 0 0 1 938.666667 552.746667c0 13.226667 0 26.88-1.92 40.32a42.666667 42.666667 0 0 1-42.453334 38.826666zM512 981.333333a423.466667 423.466667 0 0 1-166.4-33.706666 42.666667 42.666667 0 0 1 33.493333-78.72 341.333333 341.333333 0 0 0 265.813334 0 42.666667 42.666667 0 0 1 33.493333 78.72A423.466667 423.466667 0 0 1 512 981.333333zM129.706667 631.893333a42.666667 42.666667 0 0 1-42.666667-38.826666C85.333333 579.84 85.333333 566.186667 85.333333 552.746667a431.573333 431.573333 0 0 1 209.92-369.493334 42.666667 42.666667 0 1 1 42.666667 73.386667A346.026667 346.026667 0 0 0 170.666667 552.746667c0 10.88 0 21.333333 1.493333 32.426666a42.666667 42.666667 0 0 1-38.4 46.506667zM597.333333 682.666667a42.666667 42.666667 0 0 1-30.08-12.373334l-85.333333-85.333333A42.666667 42.666667 0 0 1 469.333333 554.666667v-149.333334a42.666667 42.666667 0 0 1 42.666667-42.666666 42.666667 42.666667 0 0 1 42.666667 42.666666v131.84l72.746666 72.533334A42.666667 42.666667 0 0 1 597.333333 682.666667z" fill="#333333" p-id="1480"></path></svg>